<!DOCTYPE svg PUBLIC "-//W3C//DTD SVG 1.1//EN" "http://www.w3.org/Graphics/SVG/1.1/DTD/svg11.dtd">
<!-- Uploaded to: SVG Repo, www.svgrepo.com, Transformed by: SVG Repo Mixer Tools -->
<svg width="256px" height="256px" viewBox="-4.8 -4.8 57.60 57.60" xmlns="http://www.w3.org/2000/svg" fill="#000000">
<g id="SVGRepo_bgCarrier" stroke-width="0">
<rect x="-4.8" y="-4.8" width="57.60" height="57.60" rx="28.8" fill="#fdba74" strokewidth="0"/>
</g>
<g id="SVGRepo_tracerCarrier" stroke-linecap="round" stroke-linejoin="round"/>
<g id="SVGRepo_iconCarrier"> <g id="Layer_2" data-name="Layer 2"> <g id="invisible_box" data-name="invisible box"> <rect width="48" height="48" fill="none"/> </g> <g id="Health_Icons" data-name="Health Icons"> <path d="M34.8,29.2,27.5,24l7.3-5.2a9.6,9.6,0,0,0,4.2-8,9.8,9.8,0,0,0-4.2-8.1l-.5-.3a1.9,1.9,0,0,0-2.8.4A2,2,0,0,0,32,5.6l.5.4A5.8,5.8,0,0,1,35,10.8a5.6,5.6,0,0,1-2.5,4.7L24,21.6,20.4,19H25a2,2,0,0,0,0-4H14.9a6.6,6.6,0,0,1-1.4-2H31a2,2,0,0,0,0-4H13.3a5.6,5.6,0,0,1,1.1-2H27a2,2,0,0,0,0-4H16.6c0-.1,0-.1-.1-.2a1.9,1.9,0,0,0-2.8-.4l-.5.3A9.8,9.8,0,0,0,9,10.8a9.6,9.6,0,0,0,4.2,8L20.5,24l-7.3,5.2a9.6,9.6,0,0,0-4.2,8,9.8,9.8,0,0,0,4.2,8.1l.5.3a1.9,1.9,0,0,0,1.2.4,2.1,2.1,0,0,0,1.6-.8,2,2,0,0,0-.5-2.8l-.5-.4A5.8,5.8,0,0,1,13,37.2a5.6,5.6,0,0,1,2.5-4.7l8.5-6L27.6,29H23a2,2,0,0,0,0,4H33.1a6.6,6.6,0,0,1,1.4,2H17a2,2,0,0,0,0,4H34.7a5.6,5.6,0,0,1-1.1,2H21a2,2,0,0,0,0,4H31.4c0,.1.1.1.1.2a2.1,2.1,0,0,0,1.6.8,1.9,1.9,0,0,0,1.2-.4l.5-.3A9.8,9.8,0,0,0,39,37.2,9.6,9.6,0,0,0,34.8,29.2Z"/> </g> </g> </g>
</svg>